<?xml version="1.0" standalone="no"?>
<!DOCTYPE svg PUBLIC "-//W3C//DTD SVG 20010904//EN"
 "http://www.w3.org/TR/2001/REC-SVG-20010904/DTD/svg10.dtd">
<svg version="1.0" xmlns="http://www.w3.org/2000/svg"
 width="1080.000000pt" height="1080.000000pt" viewBox="0 0 1080.000000 1080.000000"
 preserveAspectRatio="xMidYMid meet">
<metadata>
Created by potrace 1.11, written by Peter Selinger 2001-2013
</metadata>
<g transform="translate(0.000000,1080.000000) scale(0.100000,-0.100000)"
fill="#000000" stroke="none">
<path d="M4680 5650 l0 -1560 245 0 245 0 0 140 c0 77 2 140 5 140 3 0 30 -24
59 -54 213 -212 569 -300 935 -231 426 81 735 375 848 804 35 131 44 400 19
550 -62 370 -268 648 -598 806 -183 88 -419 128 -627 106 -227 -24 -389 -93
-560 -239 l-51 -44 0 571 0 571 -260 0 -260 0 0 -1560z m1350 244 c160 -37
324 -161 403 -304 67 -123 82 -192 82 -385 0 -160 -2 -175 -28 -250 -39 -110
-88 -188 -169 -267 -152 -149 -385 -211 -613 -163 -183 38 -352 169 -434 336
-53 108 -71 179 -78 309 -7 142 14 254 73 379 80 170 240 301 420 345 80 19
262 20 344 0z"/>
<path d="M3944 6349 c-253 -24 -474 -129 -591 -280 l-48 -61 -3 161 -2 161
-245 0 -245 0 0 -1120 0 -1120 260 0 260 0 0 591 c0 384 4 615 11 662 53 341
296 537 652 525 l107 -3 0 247 0 248 -37 -1 c-21 -1 -74 -5 -119 -10z"/>
<path d="M7723 4750 c-98 -21 -187 -90 -230 -178 -25 -51 -28 -68 -28 -157 0
-87 3 -107 26 -156 103 -220 397 -265 566 -88 18 19 44 61 59 94 35 76 39 189
10 275 -26 74 -119 169 -191 194 -61 21 -156 28 -212 16z"/>
</g>
</svg>
